<svg xmlns="http://www.w3.org/2000/svg" viewBox="0 0 64 64" fill="none">
  <rect width="64" height="64" rx="14" fill="#000000"/>
  <g transform="translate(32 32)">
    <path d="M 0 -22 L 11 -19 L 6 -6 L -6 -6 L -11 -19 Z" fill="#FFD712" transform="rotate(0)"/>
    <path d="M 0 -22 L 11 -19 L 6 -6 L -6 -6 L -11 -19 Z" fill="#E5BE10" transform="rotate(60)"/>
    <path d="M 0 -22 L 11 -19 L 6 -6 L -6 -6 L -11 -19 Z" fill="#FFD712" transform="rotate(120)"/>
    <path d="M 0 -22 L 11 -19 L 6 -6 L -6 -6 L -11 -19 Z" fill="#E5BE10" transform="rotate(180)"/>
    <path d="M 0 -22 L 11 -19 L 6 -6 L -6 -6 L -11 -19 Z" fill="#FFD712" transform="rotate(240)"/>
    <path d="M 0 -22 L 11 -19 L 6 -6 L -6 -6 L -11 -19 Z" fill="#E5BE10" transform="rotate(300)"/>
    <polygon points="0,-8 7,-4 7,4 0,8 -7,4 -7,-4" fill="#000000"/>
  </g>
</svg>
